<svg preserveAspectRatio="xMidYMid meet" width="16" height="16" viewBox="0 0 16 16" fill="none" xmlns="http://www.w3.org/2000/svg">
<g id="courthouse">
<path id="Vector" d="M1.33333 14.6667H14.6667" stroke="#606060" stroke-miterlimit="10" stroke-linecap="round" stroke-linejoin="round"/>
<path id="Vector_2" d="M8 1.33333C9.06667 1.76 10.2667 1.76 11.3333 1.33333V3.33333C10.2667 3.76 9.06667 3.76 8 3.33333V1.33333Z" stroke="#606060" stroke-miterlimit="10" stroke-linecap="round" stroke-linejoin="round"/>
<path id="Vector_3" d="M8 3.33333V5.33333" stroke="#606060" stroke-miterlimit="10" stroke-linecap="round" stroke-linejoin="round"/>
<path id="Vector_4" d="M11.3333 5.33333H4.66667C3.33333 5.33333 2.66667 6 2.66667 7.33333V14.6667H13.3333V7.33333C13.3333 6 12.6667 5.33333 11.3333 5.33333Z" stroke="#606060" stroke-miterlimit="10" stroke-linecap="round" stroke-linejoin="round"/>
<path id="Vector_5" d="M3.05333 8H12.9467" stroke="#606060" stroke-miterlimit="10" stroke-linecap="round" stroke-linejoin="round"/>
<path id="Vector_6" d="M5.32667 8V14.6667" stroke="#606060" stroke-miterlimit="10" stroke-linejoin="round"/>
<path id="Vector_7" d="M7.99333 8V14.6667" stroke="#606060" stroke-miterlimit="10" stroke-linejoin="round"/>
<path id="Vector_8" d="M10.66 8V14.6667" stroke="#606060" stroke-miterlimit="10" stroke-linejoin="round"/>
<path id="Vector_9" opacity="0" d="M15.5 0.5V15.5H0.5V0.5H15.5Z" stroke="#606060"/>
</g>
</svg>
